<svg width="120" height="120" viewBox="0 0 120 120" fill="none" xmlns="http://www.w3.org/2000/svg">
<path d="M93.75 26.25H15C12.0163 26.25 9.15483 27.4353 7.04505 29.545C4.93526 31.6548 3.75 34.5163 3.75 37.5V82.5C3.75 85.4837 4.93526 88.3452 7.04505 90.455C9.15483 92.5647 12.0163 93.75 15 93.75H93.75C96.7337 93.75 99.5952 92.5647 101.705 90.455C103.815 88.3452 105 85.4837 105 82.5V37.5C105 34.5163 103.815 31.6548 101.705 29.545C99.5952 27.4353 96.7337 26.25 93.75 26.25ZM97.5 82.5C97.5 83.4946 97.1049 84.4484 96.4017 85.1517C95.6984 85.8549 94.7446 86.25 93.75 86.25H15C14.0054 86.25 13.0516 85.8549 12.3483 85.1517C11.6451 84.4484 11.25 83.4946 11.25 82.5V37.5C11.25 36.5054 11.6451 35.5516 12.3483 34.8484C13.0516 34.1451 14.0054 33.75 15 33.75H93.75C94.7446 33.75 95.6984 34.1451 96.4017 34.8484C97.1049 35.5516 97.5 36.5054 97.5 37.5V82.5ZM120 45V75C120 75.9946 119.605 76.9484 118.902 77.6517C118.198 78.3549 117.245 78.75 116.25 78.75C115.255 78.75 114.302 78.3549 113.598 77.6517C112.895 76.9484 112.5 75.9946 112.5 75V45C112.5 44.0054 112.895 43.0516 113.598 42.3484C114.302 41.6451 115.255 41.25 116.25 41.25C117.245 41.25 118.198 41.6451 118.902 42.3484C119.605 43.0516 120 44.0054 120 45ZM65.0672 58.0266C65.4038 58.5707 65.5955 59.1918 65.6242 59.831C65.653 60.4702 65.5177 61.106 65.2313 61.6781L57.7313 76.6781C57.5109 77.1189 57.2058 77.5119 56.8336 77.8348C56.4613 78.1576 56.0291 78.404 55.5616 78.5598C55.0941 78.7157 54.6005 78.7779 54.109 78.743C53.6175 78.708 53.1376 78.5766 52.6969 78.3563C52.2561 78.1359 51.8631 77.8308 51.5402 77.4586C51.2174 77.0863 50.971 76.6541 50.8152 76.1866C50.6593 75.7191 50.5971 75.2255 50.632 74.734C50.667 74.2425 50.7984 73.7626 51.0187 73.3219L55.8094 63.75H46.875C46.2355 63.7505 45.6064 63.5873 45.0477 63.2762C44.489 62.965 44.0191 62.5161 43.6828 61.9721C43.3464 61.4282 43.1548 60.8072 43.1261 60.1683C43.0974 59.5294 43.2326 58.8938 43.5187 58.3219L51.0187 43.3219C51.2391 42.8811 51.5442 42.4881 51.9164 42.1652C52.2887 41.8424 52.7209 41.596 53.1884 41.4402C53.6559 41.2843 54.1495 41.2221 54.641 41.257C55.1325 41.292 55.6124 41.4234 56.0531 41.6437C56.4939 41.8641 56.8869 42.1692 57.2098 42.5414C57.5326 42.9137 57.779 43.3459 57.9348 43.8134C58.0907 44.2809 58.1529 44.7745 58.118 45.266C58.083 45.7575 57.9516 46.2374 57.7313 46.6781L52.9406 56.25H61.875C62.5144 56.2494 63.1434 56.4123 63.7021 56.7233C64.2608 57.0342 64.7307 57.4829 65.0672 58.0266Z" fill="black"/>
</svg>
