<svg width="145" height="145" viewBox="0 0 145 145" fill="none" xmlns="http://www.w3.org/2000/svg">
<path fill-rule="evenodd" clip-rule="evenodd" d="M144.808 72.9042C144.808 33.1428 112.569 0.90419 72.8084 0.90419C33.047 0.90419 0.80838 33.1428 0.80838 72.9042C0.80838 108.838 27.1341 138.626 61.5595 144.034V93.7217H43.2733V72.9042H61.5595V57.0379C61.5595 38.9947 72.3123 29.0215 88.7555 29.0215C96.6327 29.0215 104.874 30.4288 104.874 30.4288V48.1481H95.7923C86.8521 48.1481 84.0573 53.6967 84.0573 59.397V72.9036H104.023L100.834 93.7211H84.0567V144.033C118.482 138.636 144.807 108.848 144.807 72.9036L144.808 72.9042Z" fill="#1977F3"/>
<path fill-rule="evenodd" clip-rule="evenodd" d="M100.834 93.7211L104.024 72.9036H84.0578V59.397C84.0578 53.7067 86.8421 48.1481 95.7928 48.1481H104.875V30.4288C104.875 30.4288 96.6338 29.0214 88.756 29.0214C72.3129 29.0214 61.5601 38.9848 61.5601 57.0379V72.9042H43.2738V93.7217H61.5601V144.034C65.2252 144.61 68.9816 144.904 72.809 144.904C76.6363 144.904 80.3927 144.6 84.0578 144.034V93.7217H100.835L100.834 93.7211Z" fill="#FEFEFE"/>
</svg>
