<svg width="120" height="120" viewBox="0 0 120 120" fill="none" xmlns="http://www.w3.org/2000/svg">
<path d="M118.012 41.6906L61.7625 11.6906C61.2199 11.4017 60.6147 11.2506 60 11.2506C59.3853 11.2506 58.78 11.4017 58.2375 11.6906L1.98749 41.6906C1.38751 42.0104 0.885741 42.4872 0.535863 43.0701C0.185985 43.6531 0.00115967 44.3201 0.00115967 45C0.00115967 45.6799 0.185985 46.3469 0.535863 46.9299C0.885741 47.5128 1.38751 47.9896 1.98749 48.3094L15 55.2516V77.9484C14.9961 79.7904 15.674 81.5687 16.9031 82.9406C23.0437 89.7797 36.8016 101.25 60 101.25C67.6919 101.314 75.3264 99.9203 82.5 97.1438V112.5C82.5 113.495 82.8951 114.448 83.5983 115.152C84.3016 115.855 85.2554 116.25 86.25 116.25C87.2446 116.25 88.1984 115.855 88.9016 115.152C89.6049 114.448 90 113.495 90 112.5V93.5203C94.89 90.6975 99.309 87.1278 103.097 82.9406C104.326 81.5687 105.004 79.7904 105 77.9484V55.2516L118.012 48.3094C118.612 47.9896 119.114 47.5128 119.464 46.9299C119.814 46.3469 119.999 45.6799 119.999 45C119.999 44.3201 119.814 43.6531 119.464 43.0701C119.114 42.4872 118.612 42.0104 118.012 41.6906ZM60 93.75C39.7172 93.75 27.7875 83.8406 22.5 77.9484V59.25L58.2375 78.3094C58.78 78.5983 59.3853 78.7494 60 78.7494C60.6147 78.7494 61.2199 78.5983 61.7625 78.3094L82.5 67.2516V88.9734C76.5937 91.7297 69.15 93.75 60 93.75ZM97.5 77.9297C95.2521 80.4241 92.737 82.6641 90 84.6094V63.2484L97.5 59.25V77.9297ZM88.125 55.7531L88.0219 55.6922L61.7719 41.6906C60.8961 41.2433 59.8796 41.1579 58.9414 41.4528C58.0033 41.7478 57.2185 42.3995 56.7562 43.2675C56.294 44.1355 56.1911 45.1503 56.47 46.0934C56.7488 47.0365 57.3869 47.8323 58.2469 48.3094L80.1562 60L60 70.7484L11.7187 45L60 19.2516L108.281 45L88.125 55.7531Z" fill="black"/>
</svg>
