<svg width="144" height="145" viewBox="0 0 144 145" fill="none" xmlns="http://www.w3.org/2000/svg">
<path d="M72.0632 35.8132C70.7969 35.8132 69.5444 35.8778 68.3104 36.0042C67.0764 36.1306 65.8594 36.3179 64.6632 36.5637C63.467 36.8096 62.292 37.1141 61.1406 37.4735L57.7609 38.7144L54.5432 40.2681L51.5068 42.1157L48.6697 44.2378L46.0517 46.6159L43.6713 49.2316L41.5469 52.0655L39.697 55.0991L38.1424 58.3131C37.6751 59.4124 37.2594 60.5395 36.8996 61.69C36.5398 62.8405 36.2353 64.015 35.9889 65.2099C35.7426 66.4047 35.5553 67.6202 35.4284 68.8534C35.3016 70.0865 35.2379 71.3376 35.2379 72.6025C35.2379 73.8674 35.3025 75.1185 35.4284 76.3516C35.5537 77.575 35.7407 78.7912 35.9889 79.9956C36.2353 81.195 36.5398 82.3649 36.8996 83.5155C37.2594 84.666 37.6746 85.7926 38.1424 86.8923L39.697 90.1064L41.5469 93.1395L43.6713 95.9739L46.0517 98.5896L48.6697 100.968L51.5068 103.09L54.5432 104.937L57.7609 106.491L61.1406 107.732L64.6632 108.642C65.8687 108.89 67.086 109.077 68.3104 109.202C69.5573 109.329 70.8099 109.393 72.0632 109.392C73.3295 109.392 74.582 109.328 75.8156 109.202C77.04 109.077 78.2573 108.89 79.4628 108.642L82.9859 107.732L86.3655 106.491L89.5828 104.937L92.6196 103.09L95.4567 100.968L98.0752 98.5896L100.456 95.9739L102.58 93.1395L104.43 90.1064L105.985 86.8923L107.227 83.5155C107.587 82.3649 107.892 81.1904 108.138 79.9956L108.698 76.3512C108.825 75.1181 108.889 73.867 108.889 72.602C108.889 71.3371 108.825 70.086 108.698 68.8529C108.573 67.6297 108.386 66.4137 108.138 65.2094C107.892 64.01 107.587 62.8405 107.227 61.6895L105.985 58.3127L104.43 55.0986L102.58 52.065L100.456 49.2311L98.0752 46.6154L95.4567 44.2373L92.6196 42.1153L89.5828 40.2677L86.3655 38.714L82.9859 37.473L79.4628 36.5633L75.8156 36.0037C74.5689 35.8764 73.3164 35.8131 72.0632 35.8132ZM72.0632 48.5115C72.9005 48.5115 73.7267 48.553 74.5405 48.6351L76.9394 48.9982L79.2566 49.5886L81.4755 50.3946L83.5851 51.4049L85.5688 52.6066L87.4233 53.9892L89.133 55.5401L90.6853 57.2479L92.0693 59.1006L93.2724 61.087L94.2827 63.1953C94.5862 63.9168 94.8556 64.6563 95.09 65.4124C95.3243 66.1685 95.5213 66.9412 95.6805 67.7282C95.8396 68.5152 95.9573 69.3161 96.0435 70.1294L96.1672 72.6048C96.1672 73.4412 96.1257 74.2669 96.0435 75.0807C95.9614 75.8945 95.8406 76.6953 95.6805 77.4819C95.5204 78.2684 95.323 79.0411 95.09 79.7977L94.2827 82.0148L93.2724 84.123L92.0693 86.109L90.6853 87.9621L89.133 89.6699L87.4233 91.2209L85.5688 92.6035L83.5851 93.8052L81.4755 94.8155L79.2566 95.6214L76.9394 96.2119L74.5405 96.5745C73.7172 96.657 72.8902 96.6983 72.0628 96.6982C71.2351 96.6983 70.408 96.657 69.5846 96.5745L67.1857 96.2119C66.3982 96.0523 65.625 95.8549 64.868 95.6214L62.6491 94.8155L60.5395 93.8052L58.5558 92.6035L56.7013 91.2209L54.9916 89.6699L53.4393 87.9621L52.0553 86.109L50.8522 84.123L49.8419 82.0148L49.0346 79.7977L48.4441 77.4819L48.0811 75.0807C47.9985 74.258 47.9572 73.4317 47.9574 72.6048C47.9572 71.7781 47.9985 70.9519 48.0811 70.1294C48.1627 69.3161 48.284 68.5147 48.4441 67.7282C48.6026 66.9471 48.7998 66.1743 49.0351 65.4128L49.8424 63.1957L50.8527 61.0875L52.0558 59.1011L53.4397 57.2484L54.9921 55.5406L56.7017 53.9896L58.5562 52.6071L60.5399 51.4053L62.6495 50.395C63.3756 50.0901 64.1164 49.8211 64.8689 49.5891L67.1866 48.9986C67.9741 48.839 68.7759 48.7172 69.5855 48.6356C70.409 48.5531 71.2356 48.5114 72.0632 48.5115Z" fill="white"/>
<path d="M110.382 25.3477C110.09 25.3477 109.798 25.3625 109.507 25.392C109.216 25.4214 108.927 25.4654 108.64 25.5239C108.354 25.5824 108.07 25.6552 107.791 25.7421C107.511 25.8291 107.237 25.9301 106.967 26.0447C106.698 26.1595 106.435 26.2878 106.178 26.429C105.921 26.57 105.672 26.7238 105.431 26.8899C105.189 27.0561 104.956 27.2344 104.733 27.4241C104.509 27.6136 104.295 27.8142 104.091 28.0252C103.888 28.2363 103.695 28.4576 103.513 28.6881C103.331 28.9187 103.161 29.1582 103.003 29.4059C102.845 29.6534 102.7 29.9087 102.567 30.1708C102.435 30.4331 102.315 30.7019 102.209 30.9763C102.103 31.2505 102.011 31.53 101.932 31.8135C101.854 32.0971 101.79 32.3844 101.741 32.6744C101.691 32.9643 101.656 33.2565 101.635 33.55C101.62 33.7578 101.613 33.9662 101.613 34.1746C101.613 34.469 101.627 34.7632 101.657 35.0562C101.686 35.349 101.73 35.6401 101.788 35.9285C101.846 36.2169 101.918 36.5022 102.004 36.7833C102.091 37.0645 102.191 37.3412 102.305 37.6123C102.419 37.8835 102.546 38.1488 102.687 38.4072C102.827 38.6655 102.98 38.9166 103.145 39.1596C103.31 39.4024 103.487 39.6367 103.675 39.8617C103.864 40.0869 104.063 40.3025 104.273 40.5076C104.483 40.7126 104.702 40.9069 104.932 41.0898C105.161 41.2728 105.399 41.4441 105.645 41.6032C105.891 41.7623 106.145 41.9089 106.405 42.0424C106.666 42.176 106.933 42.2964 107.205 42.4031C107.478 42.5098 107.755 42.6026 108.037 42.6813C108.319 42.7599 108.604 42.8243 108.892 42.8741C109.18 42.9242 109.471 42.9598 109.762 42.9807C109.969 42.9955 110.176 43.0028 110.383 43.0029C110.675 43.0029 110.968 42.9883 111.259 42.959C111.549 42.9296 111.839 42.8856 112.125 42.8271C112.412 42.7687 112.695 42.6958 112.975 42.6089C113.254 42.5219 113.529 42.4209 113.798 42.3063C114.067 42.1916 114.331 42.0635 114.587 41.9224C114.844 41.7813 115.093 41.6273 115.335 41.4611C115.576 41.295 115.809 41.1169 116.033 40.9274C116.256 40.7377 116.47 40.537 116.674 40.3258C116.878 40.1147 117.071 39.8934 117.252 39.6629C117.434 39.4323 117.604 39.1928 117.762 38.9451C117.92 38.6975 118.066 38.442 118.198 38.1798C118.331 37.9174 118.451 37.6486 118.557 37.3743C118.663 37.1 118.755 36.8206 118.833 36.537C118.911 36.2535 118.975 35.9662 119.025 35.6762C119.075 35.3863 119.11 35.094 119.13 34.8006C119.145 34.5927 119.153 34.3844 119.153 34.176C119.153 33.8817 119.138 33.5876 119.109 33.2948C119.08 33.002 119.036 32.7109 118.978 32.4225C118.92 32.1341 118.847 31.8488 118.761 31.5677C118.674 31.2865 118.574 31.0098 118.46 30.7387C118.346 30.4675 118.219 30.2022 118.079 29.9438C117.939 29.6855 117.786 29.4344 117.621 29.1914C117.455 28.9484 117.278 28.714 117.09 28.4888C116.901 28.2637 116.702 28.0481 116.493 27.843C116.283 27.638 116.063 27.4437 115.834 27.2608C115.605 27.0779 115.367 26.9067 115.121 26.7478C114.875 26.5887 114.621 26.4421 114.36 26.3086C114.099 26.175 113.832 26.0546 113.56 25.9479C113.288 25.8412 113.01 25.7484 112.728 25.6697C112.447 25.5909 112.161 25.5264 111.873 25.4764C111.585 25.4265 111.295 25.391 111.003 25.3703C110.796 25.3555 110.589 25.3477 110.382 25.3477Z" fill="white"/>
<path d="M65.0801 0.630187C61.0749 0.623728 57.5006 0.640334 54.2898 0.685543L45.6816 0.916203C43.1314 1.02692 40.8783 1.1713 38.8559 1.35814C37.8447 1.45132 36.8907 1.55558 35.9865 1.67045C35.126 1.7789 34.268 1.90518 33.4128 2.0492C32.5985 2.1876 31.8258 2.33706 31.0849 2.49944C30.3441 2.66183 29.6364 2.83713 28.9536 3.02535C28.2862 3.2094 27.6239 3.41185 26.9677 3.63245C26.3246 3.84927 25.6972 4.07901 25.0776 4.32443C23.8385 4.81528 22.6299 5.36608 21.3852 5.98333C20.4275 6.45849 19.5427 6.93964 18.7022 7.44894C17.8617 7.95824 17.0654 8.49614 16.2858 9.08202C15.4829 9.68831 14.709 10.3321 13.9668 11.0113C13.1908 11.718 12.3983 12.4953 11.5748 13.364C10.5401 14.4495 9.64096 15.4616 8.84287 16.4548C8.44383 16.9512 8.07016 17.4421 7.71818 17.9357C7.37008 18.4221 7.03731 18.9194 6.72034 19.4266C6.40665 19.9295 6.10956 20.4416 5.82538 20.9684C5.53678 21.5043 5.26402 22.0486 5.00746 22.6005C4.48248 23.728 3.99256 24.9422 3.50356 26.2976C3.14079 27.2995 2.81594 28.3149 2.52971 29.3413C2.2377 30.3904 1.97798 31.4879 1.74639 32.6748C1.51481 33.8618 1.31275 35.1383 1.13514 36.5499C0.943752 38.0973 0.790855 39.6492 0.676592 41.2042C0.547423 42.9138 0.440397 44.7951 0.352746 46.889L0.145153 53.8513L0.0335129 62.3382L0.0012207 72.5965L0.0957912 87.5142L0.391036 98.8165L0.618466 103.231L0.90264 106.89C0.993735 107.876 1.10771 108.859 1.24448 109.84C1.36903 110.711 1.50282 111.473 1.64675 112.133C1.9388 113.474 2.28414 114.803 2.68195 116.117C3.06285 117.375 3.49844 118.615 3.98748 119.835C4.46818 121.03 4.99408 122.182 5.56612 123.291C6.13816 124.4 6.75632 125.466 7.42063 126.49C8.08493 127.513 8.79536 128.495 9.55377 129.435C10.3113 130.375 11.1171 131.274 11.9679 132.131C12.8199 132.989 13.7186 133.805 14.6657 134.581C15.6239 135.366 16.6201 136.104 17.6504 136.791C18.6067 137.43 19.5529 138.016 20.506 138.553C21.459 139.091 22.4204 139.578 23.4086 140.022C24.3967 140.465 25.4098 140.864 26.4681 141.223C27.5263 141.582 28.6289 141.901 29.7942 142.184C30.9595 142.468 32.193 142.716 33.4986 142.933C34.8041 143.15 36.1996 143.336 37.6906 143.496C39.1816 143.656 40.7722 143.788 42.4814 143.899C44.1906 144.01 46.0174 144.098 47.9803 144.169C51.0126 144.279 55.6027 144.343 60.8959 144.368L78.0316 144.333L94.2581 144.106L100.428 143.932L104.447 143.726C105.31 143.655 106.154 143.572 106.969 143.475C107.784 143.378 108.587 143.267 109.37 143.14C110.152 143.014 110.917 142.873 111.668 142.716C112.411 142.561 113.15 142.388 113.884 142.198C114.611 142.013 115.328 141.803 116.038 141.58C116.747 141.358 117.45 141.117 118.148 140.858C118.85 140.598 119.545 140.321 120.234 140.028C120.927 139.732 121.619 139.417 122.314 139.082C123.381 138.568 124.24 138.139 124.994 137.721C125.704 137.332 126.387 136.897 127.04 136.418C127.684 135.944 128.324 135.404 129.062 134.724C129.8 134.044 130.637 133.225 131.672 132.189C132.583 131.279 133.35 130.488 134.012 129.769C134.674 129.05 135.232 128.403 135.721 127.779C136.187 127.187 136.621 126.571 137.022 125.933C137.413 125.31 137.773 124.663 138.139 123.946C138.691 122.867 139.182 121.867 139.621 120.902C140.048 119.973 140.438 119.026 140.79 118.066C141.137 117.113 141.438 116.144 141.691 115.162C141.951 114.152 142.175 113.085 142.369 111.915C142.562 110.745 142.726 109.472 142.868 108.05C143.01 106.629 143.131 105.057 143.237 103.292L143.519 97.3652L143.76 89.9947L143.933 81.7832L143.999 73.1972L143.845 56.3336L143.639 48.7804L143.358 42.2952L143.007 37.2391C142.88 35.8321 142.742 34.724 142.597 33.9748C142.435 33.147 142.255 32.3231 142.056 31.5035C141.862 30.7061 141.649 29.9135 141.417 29.1264C141.191 28.3595 140.945 27.5985 140.68 26.8442C140.418 26.0992 140.14 25.3698 139.849 24.6562C139.559 23.9425 139.244 23.2455 138.917 22.5632C138.589 21.8809 138.246 21.2152 137.886 20.5647C137.525 19.9143 137.15 19.28 136.757 18.6613C136.365 18.0427 135.956 17.4397 135.53 16.8529C135.107 16.268 134.665 15.6965 134.206 15.1391C133.749 14.5849 133.275 14.0452 132.784 13.5208C132.294 12.9972 131.787 12.4892 131.265 11.9976C130.742 11.5058 130.204 11.0297 129.649 10.5693C129.091 10.1074 128.52 9.66293 127.934 9.23656C127.343 8.80583 126.739 8.39323 126.122 7.99931C125.497 7.59978 124.861 7.21887 124.213 6.85707C123.555 6.48922 122.885 6.14031 122.207 5.8108C121.08 5.26321 120.038 4.77745 119.016 4.34658C118.01 3.91896 116.985 3.53917 115.944 3.2085C114.897 2.87865 113.807 2.59587 112.608 2.35183C111.408 2.10779 110.1 1.90435 108.62 1.73135C107.14 1.55836 105.487 1.41858 103.596 1.30233C101.706 1.18608 99.5794 1.09473 97.1515 1.02092L88.9003 0.836393L78.4574 0.713221L65.0847 0.631102L65.0801 0.630187ZM72.0252 13.3174L91.3098 13.4272L98.5848 13.5674C100.588 13.6237 102.117 13.6897 103.013 13.7658C104.181 13.8641 105.292 13.9872 106.356 14.1349C107.376 14.2758 108.392 14.451 109.4 14.6603C110.369 14.8633 111.293 15.0939 112.178 15.3541C113.062 15.6143 113.907 15.9059 114.717 16.2283C115.528 16.5508 116.303 16.9055 117.049 17.294C117.789 17.6795 118.508 18.1037 119.203 18.5649C119.895 19.0239 120.562 19.5185 121.21 20.0513C121.857 20.5841 122.485 21.1552 123.098 21.766C123.746 22.4105 124.343 23.0669 124.893 23.7441C125.441 24.4172 125.949 25.1226 126.412 25.8565C126.881 26.6009 127.303 27.3736 127.677 28.17C128.059 28.982 128.402 29.84 128.71 30.752C129.019 31.6641 129.293 32.6333 129.536 33.669C129.791 34.767 130.004 35.8742 130.176 36.9882C130.36 38.1692 130.518 39.4286 130.652 40.777C130.785 42.1254 130.896 43.5634 130.987 45.1019C131.06 46.3359 131.124 47.9644 131.178 49.8876L131.313 56.4453L131.416 72.5084L131.299 88.5563L131.158 95.0951L130.963 99.8508C130.829 102.078 130.687 103.95 130.517 105.579C130.432 106.394 130.339 107.148 130.237 107.855C130.141 108.523 130.027 109.188 129.896 109.85C129.776 110.454 129.637 111.054 129.478 111.65C129.327 112.217 129.156 112.78 128.967 113.337C128.776 113.896 128.569 114.449 128.345 114.995C128.108 115.573 127.858 116.144 127.595 116.71C127.361 117.215 127.115 117.707 126.855 118.185C126.598 118.659 126.324 119.123 126.036 119.578C125.75 120.029 125.45 120.467 125.136 120.891C124.824 121.313 124.497 121.724 124.155 122.123C123.815 122.521 123.46 122.905 123.091 123.277C122.722 123.648 122.339 124.006 121.942 124.352C121.546 124.698 121.134 125.031 120.708 125.351C120.283 125.671 119.842 125.978 119.387 126.272C118.931 126.567 118.462 126.849 117.977 127.119C117.492 127.388 116.992 127.645 116.478 127.89C115.954 128.139 115.424 128.372 114.886 128.589C114.331 128.813 113.77 129.021 113.203 129.214C112.049 129.607 110.833 129.952 109.552 130.249C108.218 130.558 106.871 130.81 105.515 131.005C104.993 131.081 103.795 131.153 102.079 131.219L95.5396 131.401L76.9992 131.642L57.5933 131.672L49.9723 131.591L45.0237 131.437L41.3747 131.18C40.2417 131.085 39.188 130.979 38.2008 130.858C37.2136 130.738 36.2942 130.604 35.4292 130.452C34.6095 130.311 33.7948 130.141 32.9865 129.945C32.2495 129.766 31.52 129.557 30.7999 129.319C30.1056 129.088 29.4417 128.834 28.7959 128.555C28.15 128.276 27.5226 127.97 26.9012 127.636C26.2798 127.302 25.6649 126.94 25.043 126.544C24.5739 126.246 24.1204 125.944 23.684 125.625C23.2476 125.305 22.8259 124.986 22.42 124.652C22.014 124.318 21.6242 123.974 21.2482 123.62C20.8747 123.267 20.5141 122.901 20.1669 122.523C19.8209 122.145 19.4901 121.757 19.1727 121.355C18.8541 120.951 18.5505 120.535 18.2626 120.109C17.9703 119.676 17.6938 119.233 17.4336 118.781C17.1706 118.324 16.9206 117.852 16.683 117.364C16.4414 116.868 16.216 116.364 16.0072 115.853C15.795 115.332 15.5938 114.795 15.4047 114.241C15.0264 113.131 14.6943 111.95 14.4055 110.691C14.1167 109.432 13.8703 108.094 13.6618 106.668C13.4533 105.243 13.2854 103.731 13.1516 102.125C13.0529 100.942 12.9745 99.0989 12.9145 96.7738L12.789 88.5047L12.8351 67.4247L13.1982 47.2816L13.475 40.1847L13.6318 37.8388C13.6863 37.2124 13.7426 36.7483 13.8002 36.4696C13.9903 35.553 14.1817 34.7 14.3796 33.9015C14.5645 33.1481 14.7702 32.4001 14.9964 31.6581C15.2114 30.9578 15.4379 30.3018 15.6801 29.6804C15.9136 29.0784 16.1739 28.4872 16.4602 27.9085C16.7397 27.3457 17.0401 26.8068 17.3662 26.2823C17.6924 25.7578 18.0444 25.249 18.4282 24.7429C18.812 24.2368 19.2253 23.7372 19.6751 23.2307C20.1249 22.7242 20.6107 22.2126 21.1375 21.6853C21.7515 21.0678 22.3908 20.476 23.0538 19.9115C23.6799 19.3789 24.3327 18.8786 25.0098 18.4127C25.6755 17.9513 26.3583 17.5408 27.0692 17.1634C27.7801 16.7861 28.5191 16.4451 29.2964 16.1384C30.0737 15.8316 30.8903 15.5571 31.7552 15.308C32.664 15.0531 33.5828 14.8356 34.5093 14.6561C35.4836 14.4652 36.5184 14.2986 37.6232 14.1533C38.7281 14.008 39.9035 13.8825 41.1602 13.7736C42.0367 13.698 43.547 13.6306 45.5358 13.5739L52.7739 13.4309L72.0285 13.3132L72.0252 13.3174Z" fill="white"/>
</svg>
