<svg width="120" height="120" viewBox="0 0 120 120" fill="none" xmlns="http://www.w3.org/2000/svg">
<path d="M60 11.25C50.3582 11.25 40.9328 14.1091 32.9159 19.4659C24.899 24.8226 18.6506 32.4363 14.9609 41.3442C11.2711 50.2521 10.3057 60.0541 12.1867 69.5107C14.0677 78.9672 18.7107 87.6536 25.5285 94.4715C32.3463 101.289 41.0328 105.932 50.4893 107.813C59.9459 109.694 69.7479 108.729 78.6558 105.039C87.5637 101.349 95.1774 95.1009 100.534 87.084C105.891 79.0671 108.75 69.6418 108.75 60C108.736 47.0749 103.596 34.6831 94.4564 25.5436C85.3169 16.4042 72.9251 11.2636 60 11.25ZM78.3281 73.0266C81.0413 69.2247 82.4996 64.6707 82.4996 60C82.4996 55.3293 81.0413 50.7752 78.3281 46.9734L91.6875 33.6188C97.8661 41.0213 101.25 50.3577 101.25 60C101.25 69.6423 97.8661 78.9787 91.6875 86.3812L78.3281 73.0266ZM45 60C45 57.0333 45.8797 54.1332 47.5279 51.6664C49.1762 49.1997 51.5188 47.2771 54.2597 46.1418C57.0006 45.0065 60.0166 44.7094 62.9263 45.2882C65.8361 45.867 68.5088 47.2956 70.6066 49.3934C72.7044 51.4912 74.133 54.1639 74.7118 57.0736C75.2905 59.9834 74.9935 62.9994 73.8582 65.7402C72.7229 68.4811 70.8003 70.8238 68.3335 72.472C65.8668 74.1203 62.9667 75 60 75C56.0217 75 52.2064 73.4196 49.3934 70.6066C46.5803 67.7936 45 63.9782 45 60ZM86.3812 28.3125L73.0266 41.6719C69.2247 38.9587 64.6706 37.5003 60 37.5003C55.3293 37.5003 50.7752 38.9587 46.9734 41.6719L33.6187 28.3125C41.0213 22.1339 50.3577 18.7495 60 18.7495C69.6423 18.7495 78.9787 22.1339 86.3812 28.3125ZM28.3125 33.6188L41.6719 46.9734C38.9587 50.7752 37.5003 55.3293 37.5003 60C37.5003 64.6707 38.9587 69.2247 41.6719 73.0266L28.3125 86.3812C22.1339 78.9787 18.7495 69.6423 18.7495 60C18.7495 50.3577 22.1339 41.0213 28.3125 33.6188ZM33.6187 91.6875L46.9734 78.3281C50.7752 81.0413 55.3293 82.4996 60 82.4996C64.6706 82.4996 69.2247 81.0413 73.0266 78.3281L86.3812 91.6875C78.9787 97.8661 69.6423 101.25 60 101.25C50.3577 101.25 41.0213 97.8661 33.6187 91.6875Z" fill="black"/>
</svg>
