<svg width="639" height="145" viewBox="0 0 639 145" fill="none" xmlns="http://www.w3.org/2000/svg">
<path fill-rule="evenodd" clip-rule="evenodd" d="M258.813 21.7171C244.869 7.77489 226.546 0.604797 208.22 0.604797H208.022C189.699 0.604797 171.372 7.57591 157.432 21.7171C129.549 49.8009 129.549 95.0132 157.432 123.097C185.316 150.982 230.727 150.982 258.611 123.097C286.696 95.2126 286.696 49.8009 258.813 21.7171ZM238.496 102.781C221.764 119.512 194.477 119.512 177.749 102.781C161.016 86.0504 161.016 58.7637 177.749 42.0331C194.477 25.3025 221.764 25.3025 238.496 42.0331C255.427 58.7637 255.427 86.0504 238.496 102.781Z" fill="black"/>
<path fill-rule="evenodd" clip-rule="evenodd" d="M409.188 21.7171C395.248 7.77489 376.922 0.803776 358.599 0.604797C340.276 0.604797 321.949 7.57591 308.01 21.7171C280.126 49.8009 280.126 95.0132 308.01 123.097C335.893 150.982 381.305 150.982 409.188 123.097C437.076 95.2126 437.076 49.8009 409.188 21.7171ZM388.876 102.781C372.143 119.512 344.857 119.512 328.124 102.781C311.396 86.0504 311.396 58.7637 328.124 42.0331C344.857 25.3025 372.143 25.3025 388.876 42.0331C405.802 58.7637 405.802 86.0504 388.876 102.781Z" fill="black"/>
<path fill-rule="evenodd" clip-rule="evenodd" d="M29.1601 143.813L36.3306 144.212H143.687L143.287 137.041C142.29 125.29 133.924 116.725 122.176 115.929L115.004 115.53H50.4718L136.515 29.6863L136.116 22.5158C135.518 10.5653 126.756 2.00085 115.004 1.40353L107.832 1.00519H0.479034L0.877365 8.17528C1.8734 19.9264 10.2385 28.6903 21.99 29.288L29.1601 29.6863H93.6909L7.64948 115.729L8.04785 122.9C8.64516 134.452 17.21 143.017 29.1601 143.813Z" fill="black"/>
<path fill-rule="evenodd" clip-rule="evenodd" d="M519.331 43.8219C521.724 48.0046 522.519 52.785 522.717 58.1624L523.116 65.3329V115.525L523.516 122.695C524.311 134.446 532.875 143.011 544.627 143.808L551.799 144.206V65.3329L552.194 58.1624C552.396 52.785 553.191 48.0046 555.782 43.8219C560.759 35.2574 569.924 29.6807 580.478 29.6807C591.035 29.6807 600.394 35.4568 605.375 44.0212C607.764 48.204 608.563 53.1834 608.761 58.3618L609.16 65.5319V115.724L609.56 122.894C610.355 134.646 618.919 143.409 630.671 144.007L637.839 144.405V65.7312V58.5608C637.839 26.8923 612.147 1.19855 580.478 1.19855C563.349 1.19855 548.013 8.76736 537.456 20.5185C527.099 8.568 511.565 1.19855 494.433 1.19855C482.483 1.19855 471.53 4.78397 462.369 10.9584C456.791 4.78397 444.441 1.19855 437.274 1.19855V144.604L444.441 144.206C456.392 143.409 465.157 135.044 465.557 123.094L465.952 115.923V65.7312L466.352 58.5608C466.55 53.1834 467.349 48.4029 469.936 44.2202C474.916 35.6557 484.077 29.8797 494.635 29.8797C505.189 29.4813 514.354 35.2574 519.331 43.8219Z" fill="black"/>
</svg>
